# xmcd
#
# Track frame offsets:
#	150
#	16204
#	26559
#	36106
#	47703
#	63941
#	75965
#	89400
#	100356
#	119465
#	131757
#	145689
#	155935
#	167503
#	180152
#	196688
#	207563
#	217965
#	230432
#	245816
#	255905
#	270631
#	309671
#	319229
#
# Disc length: 4475 seconds
# Revision: 2
# Processed by: cddbd v1.5.2PL0 Copyright (c) Steve Scherf et al.
# Submitted via: dBpowerAMP V12.0
#
DISCID=48117918
DTITLE=Dinah Washington - The Very Best Of Dinah Washington [EMI]
DYEAR=2006
DGENRE=Soul
TTITLE0=The Man That Got Away
TTITLE1=Do Nothing 'Till You Hear From Me
TTITLE2=What Kind Of Fool Am I?
TTITLE3=Don't Say Nothing At All
TTITLE4=If It's The Last Thing I Do
TTITLE5=My Devotion
TTITLE6=Me and The One That I Love
TTITLE7=Somebody Else Is Taking My Place
TTITLE8=Me and My Gin
TTITLE9=Take Your Shoes Off
TTITLE10=Make Believe Dreams
TTITLE11=I'll Never Stop Loving You
TTITLE12=Something's Gotta Give
TTITLE13=The Show Must Go On
TTITLE14=I Wanna Be Around
TTITLE15=Don't Come Running Back To Me
TTITLE16=Take Me In Your Arms
TTITLE17=Stars Over My Shoulder
TTITLE18=A Handful Of Stars
TTITLE19=Where Are You?
TTITLE20=Just Friends
TTITLE21=Nobody Knows The Way I Feel This Morning
TTITLE22=Baby Won't You Please Come Home
TTITLE23=Miss You
EXTD=
EXTT0=
EXTT1=
EXTT2=
EXTT3=
EXTT4=
EXTT5=
EXTT6=
EXTT7=
EXTT8=
EXTT9=
EXTT10=
EXTT11=
EXTT12=
EXTT13=
EXTT14=
EXTT15=
EXTT16=
EXTT17=
EXTT18=
EXTT19=
EXTT20=
EXTT21=
EXTT22=
EXTT23=
PLAYORDER=
